<?xml version="1.0" encoding="UTF-8" standalone="no"?>
<!-- Created with Inkscape (http://www.inkscape.org/) -->

<svg
   xmlns:dc="http://purl.org/dc/elements/1.1/"
   xmlns:cc="http://creativecommons.org/ns#"
   xmlns:rdf="http://www.w3.org/1999/02/22-rdf-syntax-ns#"
   xmlns:svg="http://www.w3.org/2000/svg"
   xmlns="http://www.w3.org/2000/svg"
   version="1.1"
   width="100%"
   height="100%"
   viewBox="0 0 37.3 34.5"
   id="Layer_1"
   xml:space="preserve"><metadata
   id="metadata3746"><rdf:RDF><cc:Work
       rdf:about=""><dc:format>image/svg+xml</dc:format><dc:type
         rdf:resource="http://purl.org/dc/dcmitype/StillImage" /><dc:title></dc:title></cc:Work></rdf:RDF></metadata><defs
   id="defs3744" />
<g
   transform="translate(-3.6,-10.5)"
   id="Layer_9">
	<path
   d="M 13.4,37.4 C 13.2,37.4 13,37.2 12.9,37 L 8.5,11.5 H 4.1 c -0.3,0 -0.5,-0.2 -0.5,-0.5 0,-0.3 0.2,-0.5 0.5,-0.5 h 4.8 c 0.2,0 0.5,0.2 0.5,0.4 l 4.5,25.9 c 0.1,0.3 -0.1,0.6 -0.5,0.6 0.1,0 0.1,0 0,0 z"
   id="path3722"
   style="fill:#1a9b9b" />
	<path
   d="M 29.5,41.7 H 17.6 c -0.3,0 -0.5,-0.2 -0.5,-0.5 0,-0.3 0.2,-0.5 0.5,-0.5 h 11.9 c 0.3,0 0.5,0.2 0.5,0.5 0,0.3 -0.3,0.5 -0.5,0.5 z"
   id="path3724"
   style="fill:#1a9b9b" />
	<path
   d="M 37.3,33 H 12.7 c -0.3,0 -0.5,-0.2 -0.5,-0.5 0,-0.3 0.2,-0.5 0.5,-0.5 H 36.9 L 39.7,18.5 H 10.1 c -0.3,0 -0.5,-0.2 -0.5,-0.5 0,-0.3 0.2,-0.5 0.5,-0.5 h 30.3 c 0.2,0 0.3,0.1 0.4,0.2 0.1,0.1 0.1,0.3 0.1,0.4 l -3,14.5 C 37.8,32.8 37.6,33 37.3,33 z"
   id="path3726"
   style="fill:#1a9b9b" />
	<path
   d="m 13.5,45 c -2.3,0 -4.1,-1.9 -4.1,-4.1 0,-2.2 1.9,-4.1 4.1,-4.1 2.2,0 4.1,1.9 4.1,4.1 0,2.2 -1.8,4.1 -4.1,4.1 z m 0,-7.3 c -1.7,0 -3.1,1.4 -3.1,3.1 0,1.7 1.4,3.1 3.1,3.1 1.7,0 3.1,-1.4 3.1,-3.1 0,-1.7 -1.3,-3.1 -3.1,-3.1 z"
   id="path3728"
   style="fill:#1a9b9b" />
	<path
   d="m 33.8,45 c -2.3,0 -4.1,-1.9 -4.1,-4.1 0,-2.2 1.9,-4.1 4.1,-4.1 2.2,0 4.1,1.9 4.1,4.1 0,2.2 -1.8,4.1 -4.1,4.1 z m 0,-7.3 c -1.7,0 -3.1,1.4 -3.1,3.1 0,1.7 1.4,3.1 3.1,3.1 1.7,0 3.1,-1.4 3.1,-3.1 0,-1.7 -1.4,-3.1 -3.1,-3.1 z"
   id="path3730"
   style="fill:#1a9b9b" />
	<path
   d="m 25.1,32.9 c -0.3,0 -0.5,-0.2 -0.5,-0.5 V 18.1 c 0,-0.3 0.2,-0.5 0.5,-0.5 0.3,0 0.5,0.2 0.5,0.5 v 14.3 c 0,0.3 -0.2,0.5 -0.5,0.5 z"
   id="path3732"
   style="fill:#1a9b9b" />
	<path
   d="m 30.8,32.8 c 0,0 -0.1,0 0,0 -0.3,0 -0.5,-0.3 -0.5,-0.6 L 32.1,18 c 0,-0.3 0.3,-0.5 0.6,-0.4 0.3,0 0.5,0.3 0.4,0.6 l -1.8,14.2 c -0.1,0.2 -0.3,0.4 -0.5,0.4 z"
   id="path3734"
   style="fill:#1a9b9b" />
	<path
   d="m 19.2,32.8 c -0.2,0 -0.5,-0.2 -0.5,-0.4 L 16.5,18.3 c 0,-0.3 0.1,-0.5 0.4,-0.6 0.3,0 0.5,0.1 0.6,0.4 l 2.2,14.1 c 0,0.3 -0.2,0.5 -0.5,0.6 0,0 0,0 0,0 z"
   id="path3736"
   style="fill:#1a9b9b" />
	<path
   d="M 39.1,23.7 H 11 c -0.3,0 -0.5,-0.2 -0.5,-0.5 0,-0.3 0.2,-0.5 0.5,-0.5 h 28 c 0.3,0 0.5,0.2 0.5,0.5 0,0.3 -0.2,0.5 -0.4,0.5 z"
   id="path3738"
   style="fill:#1a9b9b" />
	<path
   d="M 37.8,28.8 H 12.1 c -0.3,0 -0.5,-0.2 -0.5,-0.5 0,-0.3 0.2,-0.5 0.5,-0.5 h 25.7 c 0.3,0 0.5,0.2 0.5,0.5 0,0.3 -0.2,0.5 -0.5,0.5 z"
   id="path3740"
   style="fill:#1a9b9b" />
</g>
</svg>