<?xml version="1.0" encoding="UTF-8" standalone="no"?>
<!-- Created with Inkscape (http://www.inkscape.org/) -->

<svg
   xmlns:dc="http://purl.org/dc/elements/1.1/"
   xmlns:cc="http://creativecommons.org/ns#"
   xmlns:rdf="http://www.w3.org/1999/02/22-rdf-syntax-ns#"
   xmlns:svg="http://www.w3.org/2000/svg"
   xmlns="http://www.w3.org/2000/svg"
   version="1.1"
   width="100%"
   height="100%"
   viewBox="0 0 30 30"
   id="Layer_1"
   xml:space="preserve"><metadata
   id="metadata6762"><rdf:RDF><cc:Work
       rdf:about=""><dc:format>image/svg+xml</dc:format><dc:type
         rdf:resource="http://purl.org/dc/dcmitype/StillImage" /><dc:title></dc:title></cc:Work></rdf:RDF></metadata><defs
   id="defs6760" />
<g
   transform="translate(-7.5,-15)"
   id="Layer_10_1_">
	<path
   d="m 18,22.2 c 0.4,0.6 2,3.1 2,3.1 L 18.4,27 c 0,0 0.1,2.5 2.4,4.7 2.3,2.2 4.4,2.3 4.4,2.3 l 1.7,-1.5 c 0,0 2.6,1.6 3.1,2 0.6,0.4 0,1.3 0,1.3 l -1.9,1.6 c 0,0 -1.1,0.6 -1.9,0.4 C 24.6,37.5 21.7,36.5 18.7,33.1 15.8,29.8 14.8,27.2 14.4,25.8 14.3,25 14.8,24 14.8,24 l 1.8,-2.1 c 0,0.1 1,-0.3 1.4,0.3 z"
   id="path6754"
   style="fill:#484848" />
	<path
   d="m 22.5,45 c -8.3,0 -15,-6.7 -15,-15 0,-8.3 6.7,-15 15,-15 8.3,0 15,6.7 15,15 0,8.3 -6.7,15 -15,15 z m 0,-29 c -7.7,0 -14,6.3 -14,14 0,7.7 6.3,14 14,14 7.7,0 14,-6.3 14,-14 0,-7.8 -6.3,-14 -14,-14 z"
   id="path6756"
   style="fill:#484848" />
</g>
</svg>