<?xml version="1.0" encoding="UTF-8" standalone="no"?>
<!-- Created with Inkscape (http://www.inkscape.org/) -->

<svg
   xmlns:dc="http://purl.org/dc/elements/1.1/"
   xmlns:cc="http://creativecommons.org/ns#"
   xmlns:rdf="http://www.w3.org/1999/02/22-rdf-syntax-ns#"
   xmlns:svg="http://www.w3.org/2000/svg"
   xmlns="http://www.w3.org/2000/svg"
   version="1.1"
   width="100%"
   height="100%"
   viewBox="0 0 17.408104 19.5"
   id="Layer_1"
   xml:space="preserve"><metadata
   id="metadata4084"><rdf:RDF><cc:Work
       rdf:about=""><dc:format>image/svg+xml</dc:format><dc:type
         rdf:resource="http://purl.org/dc/dcmitype/StillImage" /><dc:title></dc:title></cc:Work></rdf:RDF></metadata><defs
   id="defs4082" />
<path
   d="m 0.70405184,19.1 c -0.1,0 -0.3,0 -0.4,-0.1 -0.3,-0.2 -0.4,-0.6 -0.2,-0.9 L 2.8040518,14.2 v -3.5 l 0.8,-6 c 0,-0.4 0.4,-0.6 0.7,-0.6 0.4,0 0.6,0.4 0.6,0.7 l -0.8,6.1 0,3.8 -2.9,4.2 c -0.1,0.1 -0.29999996,0.2 -0.49999996,0.2 z"
   id="path4064"
   style="fill:#1a9b9b" />
<path
   d="m 8.5040518,19.2 c -0.2,0 -0.5,-0.1 -0.6,-0.4 l -1.9,-4 -2.8,-3.6 c -0.2,-0.3 -0.2,-0.7 0.1,-0.9 0.3,-0.2 0.7,-0.2 0.9,0.1 l 3,3.8 1.9,4.1 c 0.2,0.3 0,0.7 -0.3,0.9 -0.1,0 -0.2,0 -0.3,0 z"
   id="path4066"
   style="fill:#1a9b9b" />
<path
   d="m 9.5040518,11.6 c -0.1,0 -0.2,0 -0.3,-0.1 l -4,-2.4 -1.4,-3.9 c -0.1,-0.3 0.1,-0.7 0.4,-0.8 0.3,-0.1 0.7,0.1 0.8,0.4 l 1.2,3.5 3.6,2.2 c 0.3000002,0.2 0.4000002,0.6 0.2000002,0.9 -0.1000002,0.1 -0.3000002,0.2 -0.5000002,0.2 z"
   id="path4068"
   style="fill:#1a9b9b" />
<path
   d="M 12.804052,18.3 8.8040518,11.2 c -0.2,-0.3 -0.1,-0.7 0.2,-0.9 0.3,-0.2 0.7,-0.1 0.9,0.2 l 3.4000002,6 3.1,-1.8 c 0.3,-0.2 0.7,-0.1 0.9,0.2 0.2,0.3 0.1,0.7 -0.2,0.9 l -4.3,2.5 z"
   id="path4070"
   style="fill:#1a9b9b" />
<path
   d="m 11.404052,11.9 3.4,-2 2,3.4 -3.4,2 -2,-3.4 z"
   id="path4072"
   style="fill:#1a9b9b" />
<path
   d="m 10.004052,9 2.2,-1.2 1.2,2.2 -2.1,1.2 -1.3,-2.2 z"
   id="path4074"
   style="fill:#1a9b9b" />
<path
   d="m 5.1040518,0 c 1,0 1.7,0.7 1.7,1.7 0,1 -0.9,1.7 -1.7,1.7 -1,0 -1.7,-0.7 -1.7,-1.7 0,-1 0.8,-1.7 1.7,-1.7 z"
   id="path4076"
   style="fill:#1a9b9b" />
<path
   d="m 13.004052,17.1 c 0.6,0 1.2,0.5 1.2,1.2 0,0.6 -0.5,1.2 -1.2,1.2 -0.6,0 -1.2,-0.5 -1.2,-1.2 0,-0.7 0.5,-1.2 1.2,-1.2 z"
   id="path4078"
   style="fill:#1a9b9b" />
</svg>