<?xml version="1.0" encoding="utf-8"?>
<!-- Generator: Adobe Illustrator 19.0.1, SVG Export Plug-In . SVG Version: 6.00 Build 0)  -->
<svg version="1.1" id="Layer_1" xmlns="http://www.w3.org/2000/svg" xmlns:xlink="http://www.w3.org/1999/xlink" x="0px" y="0px"
	 viewBox="0 0 78.5 80.6" style="enable-background:new 0 0 78.5 80.6;" xml:space="preserve">
<style type="text/css">
	.st0{fill:#FDFDFD;}
	.st1{fill:#E3E3E3;}
	.st2{fill:#BAB9BA;}
</style>
<g>
	<path class="st0" d="M75.7,36.1H2.8c-1.6,0-2.8-1.3-2.8-2.8V22.4c0-1.6,1.3-2.8,2.8-2.8h72.9c1.6,0,2.8,1.3,2.8,2.8v10.9
		C78.5,34.8,77.2,36.1,75.7,36.1z"/>
</g>
<g>
	<path class="st1" d="M69.6,80.6H8.9c-2.9,0-5.3-2.4-5.3-5.3V36.1h71.3v39.3C74.9,78.2,72.5,80.6,69.6,80.6z"/>
</g>
<g>
	<rect x="3.6" y="36.1" class="st2" width="71.3" height="4.5"/>
</g>
<g>
	<rect x="33.1" y="19.6" width="12.5" height="61"/>
</g>
<g>
	<path d="M39,20.1H14c-5.5,0-10-4.5-10-10c0-3.5,1.8-6.7,4.8-8.5c3-1.8,6.6-2,9.8-0.4c0.1,0,0.2,0.1,0.3,0.2l21.4,15.2
		c0.7,0.5,1,1.4,0.7,2.2C40.6,19.5,39.9,20.1,39,20.1z M14,4c-1.1,0-2.2,0.3-3.2,0.9C9.1,6,8,7.9,8,10c0,3.3,2.7,6,6,6h18.7
		L16.6,4.6C15.8,4.2,14.9,4,14,4z"/>
</g>
<g>
	<path d="M64,20.1H39c-0.9,0-1.6-0.6-1.9-1.4c-0.3-0.8,0-1.7,0.7-2.2L59.2,1.2c0.1-0.1,0.2-0.1,0.3-0.2c3.1-1.6,6.8-1.4,9.8,0.4
		c3,1.8,4.8,5,4.8,8.5C74,15.6,69.5,20.1,64,20.1z M45.3,16.1H64c3.3,0,6-2.7,6-6c0-2.1-1.1-4-2.9-5.1c-1.7-1.1-3.9-1.2-5.7-0.3
		L45.3,16.1z"/>
</g>
<g>
	<circle cx="39.4" cy="13.3" r="6.3"/>
</g>
</svg>
